<svg width="155" height="28" viewBox="0 0 155 28" fill="none" xmlns="http://www.w3.org/2000/svg">
<path d="M23.5907 0V27.6436V27.6436C20.5362 27.6436 18.0601 25.1674 18.0601 22.113V15.8812H6.24835V22.113C6.24835 25.1674 3.77223 27.6436 0.717773 27.6436V27.6436V0V0C3.77223 0 6.24835 2.47612 6.24835 5.53058V11.3663H18.0601V5.53058C18.0601 2.47613 20.5362 0 23.5907 0V0Z" fill="#B00F84"/>
<path d="M49.3788 16.198C49.3788 16.9901 49.3262 17.703 49.2208 18.3366H33.2216C33.3533 19.9208 33.9064 21.1617 34.8808 22.0594C35.8552 22.9571 37.0535 23.4059 38.4757 23.4059C40.5299 23.4059 41.9915 22.5215 42.8606 20.7525H48.8258C48.1937 22.8647 46.9822 24.6073 45.1914 25.9802C43.4005 27.3267 41.2015 28 38.5942 28C36.4873 28 34.5911 27.538 32.9056 26.6139C31.2464 25.6634 29.9428 24.33 28.9947 22.6139C28.0729 20.8977 27.6121 18.9175 27.6121 16.6733C27.6121 14.4026 28.0729 12.4092 28.9947 10.6931C29.9165 8.9769 31.2069 7.65677 32.8661 6.73267C34.5253 5.80858 36.4346 5.34653 38.5942 5.34653C40.6747 5.34653 42.5314 5.79538 44.1643 6.69307C45.8234 7.59076 47.1007 8.87129 47.9962 10.5347C48.9179 12.1716 49.3788 14.0594 49.3788 16.198ZM43.6507 14.6139C43.6244 13.1881 43.1108 12.0528 42.1101 11.2079C41.1093 10.3366 39.8847 9.90099 38.4362 9.90099C37.0667 9.90099 35.9079 10.3234 34.9598 11.1683C34.0381 11.9868 33.4718 13.1353 33.2611 14.6139H43.6507Z" fill="#B00F84"/>
<path d="M58.9462 9.10891C59.6573 7.9472 60.5791 7.0363 61.7115 6.37624C62.8703 5.71617 64.1871 5.38614 65.6619 5.38614V11.2079H64.2003C62.4621 11.2079 61.1453 11.6172 60.2499 12.4356C59.3808 13.2541 58.9462 14.6799 58.9462 16.7129V27.6436H53.4156V5.70297H58.9462V9.10891Z" fill="#B00F84"/>
<path d="M94.1561 0L85.1967 24.4901C84.5039 26.384 82.7019 27.6436 80.6852 27.6436V27.6436C78.6685 27.6436 76.8666 26.384 76.1737 24.4901L67.2143 0H67.4376C70.8501 0 73.8869 2.1646 75 5.39041L80.7247 21.9802L86.4154 5.40257C87.5249 2.17051 90.5648 0 93.982 0H94.1561Z" fill="#B00F84"/>
<path d="M117.817 16.198C117.817 16.9901 117.764 17.703 117.659 18.3366H101.659C101.791 19.9208 102.344 21.1617 103.319 22.0594C104.293 22.9571 105.491 23.4059 106.913 23.4059C107.069 23.4059 107.221 23.4009 107.37 23.3907C110.413 23.1833 113.231 20.7525 116.281 20.7525H117.264C116.631 22.8647 115.42 24.6073 113.629 25.9802C111.838 27.3267 109.639 28 107.032 28C104.925 28 103.029 27.538 101.343 26.6139C99.6842 25.6634 98.3806 24.33 97.4325 22.6139C96.5107 20.8977 96.0499 18.9175 96.0499 16.6733C96.0499 14.4026 96.5107 12.4092 97.4325 10.6931C98.3543 8.9769 99.6447 7.65677 101.304 6.73267C102.963 5.80858 104.872 5.34653 107.032 5.34653C109.113 5.34653 110.969 5.79538 112.602 6.69307C114.261 7.59076 115.539 8.87129 116.434 10.5347C117.356 12.1716 117.817 14.0594 117.817 16.198ZM112.089 14.6139C112.062 13.1881 111.549 12.0528 110.548 11.2079C109.547 10.3366 108.322 9.90099 106.874 9.90099C105.505 9.90099 104.346 10.3234 103.398 11.1683C102.476 11.9868 101.91 13.1353 101.699 14.6139H112.089Z" fill="#B00F84"/>
<path d="M130.228 28C128.437 28 126.831 27.6832 125.409 27.0495C123.987 26.3894 122.854 25.505 122.011 24.396C121.195 23.2871 120.747 22.0594 120.668 20.7129H126.238C126.344 21.5578 126.752 22.2574 127.463 22.8119C128.2 23.3663 129.109 23.6436 130.189 23.6436C131.242 23.6436 132.059 23.4323 132.638 23.0099C133.244 22.5875 133.547 22.0462 133.547 21.3861C133.547 20.6733 133.178 20.1452 132.441 19.802C131.729 19.4323 130.584 19.0363 129.004 18.6139C127.371 18.2178 126.028 17.8086 124.974 17.3861C123.947 16.9637 123.052 16.3168 122.288 15.4455C121.551 14.5743 121.182 13.3993 121.182 11.9208C121.182 10.7063 121.524 9.59736 122.209 8.59406C122.92 7.59076 123.921 6.79868 125.211 6.21782C126.528 5.63696 128.069 5.34653 129.833 5.34653C132.441 5.34653 134.521 6.0066 136.075 7.32673C137.629 8.62046 138.485 10.3762 138.643 12.5941H133.349C133.27 11.7228 132.901 11.0363 132.243 10.5347C131.611 10.0066 130.755 9.74257 129.675 9.74257C128.674 9.74257 127.898 9.92739 127.345 10.297C126.818 10.6667 126.554 11.1815 126.554 11.8416C126.554 12.5809 126.923 13.1485 127.661 13.5446C128.398 13.9142 129.544 14.297 131.097 14.6931C132.678 15.0891 133.981 15.4984 135.008 15.9208C136.035 16.3432 136.918 17.0033 137.655 17.901C138.419 18.7723 138.814 19.934 138.84 21.3861C138.84 22.6535 138.485 23.7888 137.774 24.7921C137.089 25.7954 136.088 26.5875 134.771 27.1683C133.481 27.7228 131.966 28 130.228 28Z" fill="#B00F84"/>
<path d="M149.819 10.2574V20.8713C149.819 21.6106 149.99 22.1518 150.333 22.495C150.702 22.8119 151.307 22.9703 152.15 22.9703H154.718V27.6436H151.241C146.58 27.6436 144.249 25.3729 144.249 20.8317V10.2574H141.642V5.70297H144.249V0.277227H144.394C147.39 0.277227 149.819 2.70641 149.819 5.70297V5.70297H154.718V10.2574H149.819Z" fill="#B00F84"/>
</svg>
